<svg xmlns="http://www.w3.org/2000/svg" viewBox="-19 -19 86.1 86.1" enable-background="new -19 -19 86.1 86.1"><g fill="#FFF"><path d="M-439.5 127.6c-1.5 0-2.9-.3-4.3-.9-.4-.2-.6-.5-.7-.9-.1-.4 0-.8.3-1.1l4.3-4.3V117h-3.4l-4.3 4.3c-.3.3-.7.4-1.1.3-.4-.1-.7-.3-.9-.7-1.7-4.1-.8-8.9 2.3-12 2.1-2.1 4.8-3.2 7.7-3.2 1.2 0 2.4.2 3.5.6l17.8-17.8c-1.3-3.9-.3-8.3 2.6-11.2 2.1-2.1 4.8-3.2 7.7-3.2 1.5 0 2.9.3 4.3.9.4.2.6.5.7.9.1.4 0 .8-.3 1.1l-4.3 4.3v3.4h3.4l4.3-4.3c.3-.3.7-.4 1.1-.3.4.1.7.3.9.7 1.7 4.1.8 8.9-2.3 12-2.1 2.1-4.8 3.2-7.7 3.2-1.2 0-2.4-.2-3.5-.6l-17.8 17.8c1.3 3.9.3 8.3-2.6 11.2-2 2.1-4.8 3.2-7.7 3.2zm-1.5-2.5c.5.1 1 .1 1.5.1 2.3 0 4.4-.9 6-2.5 2.5-2.5 3.2-6.1 1.8-9.4-.2-.5-.1-1 .3-1.3l18.9-18.9c.4-.4.9-.5 1.3-.3 1.1.4 2.2.7 3.3.7 2.3 0 4.4-.9 6-2.5 2-2 2.9-4.8 2.4-7.5l-3.2 3.2c-.2.2-.5.4-.9.4h-5.2c-.7 0-1.2-.5-1.2-1.2v-5.2c0-.3.1-.6.4-.9l3.2-3.2c-.5-.1-1-.1-1.5-.1-2.3 0-4.4.9-6 2.5-2.5 2.5-3.2 6.1-1.8 9.4.2.5.1 1-.3 1.3l-18.9 18.9c-.4.4-.9.5-1.3.3-1.1-.4-2.2-.7-3.3-.7-2.3 0-4.4.9-6 2.5-2 2-2.9 4.8-2.4 7.5l3.2-3.2c.2-.2.5-.4.9-.4h5.2c.7 0 1.2.5 1.2 1.2v5.2c0 .3-.1.6-.4.9l-3.2 3.2zM-401.7 127.6c-1.3 0-2.5-.5-3.4-1.4l-11.2-11.2c-.5-.5-.5-1.2 0-1.7l5.2-5.2c.5-.5 1.2-.5 1.7 0l11.2 11.2c.9.9 1.4 2.1 1.4 3.4 0 1.3-.5 2.5-1.4 3.4-1 1-2.2 1.5-3.5 1.5zm-12.1-13.5l10.3 10.3c.9.9 2.5.9 3.4 0 .5-.5.7-1.1.7-1.7 0-.7-.3-1.3-.7-1.7l-10.3-10.3-3.4 3.4zM-427.636 98.605l-13.928-13.928 1.697-1.696 13.927 13.928zM-418.1 117.9c-.3 0-.6-.1-.9-.4-.5-.5-.5-1.2 0-1.7l10.3-10.3c.5-.5 1.2-.5 1.7 0s.5 1.2 0 1.7l-10.3 10.3c-.2.3-.5.4-.8.4zM-442.3 86.8c-.3 0-.6-.1-.9-.4l-6.9-6.9c-.2-.2-.4-.5-.4-.9s.1-.6.4-.9l3.4-3.4c.5-.5 1.2-.5 1.7 0l6.9 6.9c.2.2.4.5.4.9s-.1.6-.4.9l-3.4 3.4c-.2.3-.5.4-.8.4zm-5.2-8.1l5.2 5.2 1.7-1.7-5.2-5.2-1.7 1.7zM-413.525 112.694l-8.908-8.908 1.697-1.697 8.908 8.908z"/></g><path fill="#FFF" d="M-423.7 143.9c-23.7 0-43-19.3-43-43s19.3-43 43-43 43 19.3 43 43-19.2 43-43 43zm0-83.6c-22.3 0-40.5 18.2-40.5 40.5s18.2 40.5 40.5 40.5 40.5-18.2 40.5-40.5-18.1-40.5-40.5-40.5zM24 67C.3 67-19 47.7-19 24S.3-19 24-19 67 .3 67 24 47.7 67 24 67zm0-83.5C1.7-16.5-16.5 1.7-16.5 24S1.7 64.5 24 64.5 64.5 46.3 64.5 24 46.3-16.5 24-16.5z"/><path d="M34.4 14.5c0 .3.3.6.6.6.4 0 .6-.4.6-.6v-.6H35c-.3 0-.6.3-.6.6zM28.5 16.9c0 .3.3.6.6.6.4 0 .6-.4.6-.6v-.6h-.6c-.3 0-.6.2-.6.6zM14.5 24.3l1-2 1.1 1.9c1.5 2.7 3.1 3.6 5.7 3.1-.8-4.6-4.2-8.1-8.2-8.1-3.9 0-7.1 3.3-8.1 7.7.7.3 1.5.4 2.3.4 2.5 0 5.4-1.4 6.2-3zM21.1 29.9c-2.3 0-4.1-1-5.6-3-1.7 1.6-4.5 2.8-7.1 2.8-.9 0-1.8-.1-2.6-.4v.1c0 5.7 3.7 10.3 8.3 10.3 4.5 0 8.2-4.4 8.3-9.9-.4.1-.8.1-1.3.1zM35.7 6.8l-4.5 2.1v1l4.5-2.1z" fill="none"/><path fill="#FFF" d="M29.1 47l-8.8-3.1v-4.1c2.7-2.3 4.5-6.1 4.5-10.3 0-7-4.8-12.7-10.8-12.7S3.4 22.5 3.4 29.5c0 4.5 2 8.5 5 10.7v3.7L-.4 47C-3.1 48-5 50.7-5 53.6V56h2.4v-2.4c0-1.9 1.2-3.6 3-4.3l10.4-3.7v-4.1c1 .4 2.2.6 3.3.6 1.3 0 2.6-.3 3.8-.8v4.3l10.4 3.7c1.8.6 3 2.4 3 4.3v12.3h2.4V53.6c0-2.9-1.8-5.6-4.6-6.6zm-15-27.8c4 0 7.4 3.5 8.2 8.1-2.6.4-4.1-.4-5.7-3.1l-1.1-1.9-1 2c-.8 1.6-3.7 3-6.1 3-.9 0-1.6-.1-2.3-.4.9-4.4 4.2-7.7 8-7.7zm0 20.5c-4.6 0-8.3-4.6-8.3-10.3v-.1c.8.2 1.7.4 2.6.4 2.6 0 5.4-1.2 7.1-2.8 1.5 2 3.3 3 5.6 3 .4 0 .9 0 1.4-.1-.2 5.5-3.8 9.9-8.4 9.9zM35.7 12.5h-.6c-1.1 0-2.1.9-2.1 2.1s.9 2.1 2.1 2.1c1.1 0 2.1-1 2.1-2.1v-10l-7.4 3.3v6.9h-.6c-1.1 0-2.1.9-2.1 2.1s.9 2.1 2 2.1 2.1-1 2.1-2.1v-5.4l4.5-2.1v3.1zm0 2c0 .2-.2.6-.6.6-.3 0-.6-.3-.6-.6s.3-.6.6-.6h.6v.6zm-5.9 2.4c0 .2-.2.6-.6.6-.3 0-.6-.3-.6-.6s.3-.6.6-.6h.6v.6zm1.4-7v-1l4.5-2.1v1l-4.5 2.1z"/><path d="M45.7 4.8c0 .3.2.5.5.5s.5-.3.5-.5v-.6h-.5c-.2 0-.5.3-.5.6zM40.6 6.8c0 .3.2.5.5.5s.5-.3.5-.5v-.5h-.5c-.3 0-.5.2-.5.5zM42.9.7l3.9-1.8v-1L42.9-.2z" fill="none"/><path fill="#FFF" d="M41.6-1.1V5h-.5c-1 0-1.8.8-1.8 1.8s.8 1.8 1.8 1.8 1.8-.8 1.8-1.8V2.1L46.8.2V3h-.5c-1 0-1.8.8-1.8 1.8s.8 1.8 1.8 1.8 1.8-.8 1.8-1.8V-4l-6.5 2.9zm0 7.9c0 .2-.2.5-.5.5s-.5-.2-.5-.5.2-.5.5-.5h.5v.5zm5.2-2c0 .2-.2.5-.5.5s-.5-.2-.5-.5.2-.5.5-.5h.5v.5zm0-5.9L42.9.8v-.9L46.8-2v.9z"/><path d="M44.6 18.2c0 .3.2.5.5.5s.5-.3.5-.5v-.5h-.5c-.3 0-.5.3-.5.5zM39.4 20.3c0 .3.2.5.5.5s.5-.3.5-.5v-.5h-.5c-.3 0-.5.2-.5.5zM41.7 14.2l3.9-1.9v-.9l-3.9 1.9z" fill="none"/><path fill="#FFF" d="M40.4 12.4v6.1h-.5c-1 0-1.8.8-1.8 1.8s.8 1.8 1.8 1.8 1.8-.8 1.8-1.8v-4.7l3.9-1.9v2.8h-.5c-1 0-1.8.8-1.8 1.8s.8 1.8 1.8 1.8 1.8-.8 1.8-1.8V9.5l-6.5 2.9zm0 7.9c0 .2-.2.5-.5.5s-.5-.2-.5-.5.2-.5.5-.5h.5v.5zm5.2-2.1c0 .2-.2.5-.5.5s-.5-.2-.5-.5.2-.5.5-.5h.5v.5zm0-5.9l-3.9 1.9v-.9l3.9-1.9v.9zM-187.1 24c-23.7 0-43-19.3-43-43s19.3-43 43-43 43 19.3 43 43-19.3 43-43 43zm0-83.6c-22.3 0-40.5 18.2-40.5 40.5s18.2 40.5 40.5 40.5 40.5-18.2 40.5-40.5-18.2-40.5-40.5-40.5zM-187.1 13.4c-.2 0-.4-.1-.7-.2-.3-.2-7.7-4.5-15.2-11.4-10.2-9.4-15.3-18.7-15.3-27.7 0-12 8.2-17.5 15.7-17.5 5.8 0 12.4 3.3 15.4 10.7 3.1-7.3 9.6-10.7 15.4-10.7 7.6 0 15.7 5.5 15.7 17.5 0 8.9-5.2 18.2-15.3 27.7-7.5 6.9-14.9 11.2-15.2 11.4-.1.1-.3.2-.5.2zm-15.4-54.2c-6.3 0-13.1 4.7-13.1 14.9 0 18 24.2 33.8 28.6 36.4 4.3-2.7 28.6-18.4 28.6-36.4 0-10.3-6.8-14.9-13.1-14.9-5.8 0-12.4 4-14.2 12.9-.1.6-.7 1.1-1.3 1.1s-1.2-.4-1.3-1.1c-1.8-8.9-8.4-12.9-14.2-12.9zM-192.2-19.9v12.6h-1.6c-2.1 0-3.8 1.7-3.8 3.8s1.7 3.8 3.8 3.8c2 0 3.8-1.8 3.8-3.8v-11.1l8.5-3.4v7.4h-1.6c-2.1 0-3.8 1.7-3.8 3.8S-185.1-3-183-3c2 0 3.8-1.8 3.8-3.8v-18.3l-13 5.2zm0 16.3c0 .7-.7 1.6-1.6 1.6-.9 0-1.6-.7-1.6-1.6 0-.9.7-1.6 1.6-1.6h1.6v1.6zm10.7-3.2c0 .7-.7 1.6-1.6 1.6-.9 0-1.6-.7-1.6-1.6s.7-1.6 1.6-1.6h1.6v1.6zm0-13.7l-8.5 3.4v-1.3l8.5-3.4v1.3zM-136.6-207c-23.7 0-43-19.3-43-43s19.3-43 43-43 43 19.3 43 43-19.3 43-43 43zm0-83.5c-22.3 0-40.5 18.2-40.5 40.5s18.2 40.5 40.5 40.5 40.5-18.2 40.5-40.5-18.2-40.5-40.5-40.5z"/><g fill="#FFF"><path d="M-119.2-245h-.2c-.7-.1-1.1-.7-1-1.4l2.3-15.1c.6-4-.5-8-3.1-11s-6.4-4.8-10.4-4.8h-10c-4 0-7.8 1.7-10.4 4.8-2.6 3-3.7 7-3.1 11l2.3 15.1c.1.7-.4 1.3-1 1.4-.7.1-1.3-.4-1.4-1l-2.3-15.1c-.7-4.7.6-9.4 3.7-13 3.1-3.6 7.5-5.6 12.3-5.6h10c4.7 0 9.2 2.1 12.3 5.6 3.1 3.6 4.4 8.3 3.7 13l-2.3 15.1c-.3.5-.8 1-1.4 1zM-151.5-220.2c-.7 0-1.2-.6-1.2-1.2v-2.5c0-.7.6-1.2 1.2-1.2s1.2.6 1.2 1.2v2.5c0 .7-.6 1.2-1.2 1.2zM-121.7-220.2c-.7 0-1.2-.6-1.2-1.2v-2.5c0-.7.6-1.2 1.2-1.2s1.2.6 1.2 1.2v2.5c.1.7-.5 1.2-1.2 1.2zM-120.4-222.6h-32.3c-4.8 0-8.7-3.9-8.7-8.7v-5c0-.8-.5-1.4-1.1-1.7-2.3-1-3.8-3.2-3.8-5.7 0-3.4 2.8-6.2 6.2-6.2 5.5 0 10 4.5 10 10v1.8c2.2-.8 6.5-1.8 13.7-1.8 7.2 0 11.5 1 13.7 1.8v-1.8c0-5.5 4.5-10 10-10 3.4 0 6.2 2.8 6.2 6.2 0 2.5-1.5 4.8-3.8 5.7-.7.3-1.1 1-1.1 1.7v5c-.3 4.7-4.2 8.7-9 8.7zm-39.8-24.9c-2.1 0-3.7 1.7-3.7 3.7 0 1.5.9 2.9 2.3 3.4 1.6.7 2.7 2.3 2.7 4v5c0 3.4 2.8 6.2 6.2 6.2h32.3c3.4 0 6.2-2.8 6.2-6.2v-5c0-1.8 1.1-3.3 2.7-4 1.4-.6 2.3-1.9 2.3-3.4 0-2.1-1.7-3.7-3.7-3.7-4.1 0-7.5 3.3-7.5 7.5v6.1l-1.9-1.3s-3.7-2.3-14.2-2.3l-14.2 2.3-1.9 1.2v-6c-.2-4.2-3.5-7.5-7.6-7.5zM-130.4-253.7c-.3 0-.6-.1-.9-.4l-2.5-2.5c-.5-.5-.5-1.3 0-1.8l2.5-2.5c.5-.5 1.3-.5 1.8 0s.5 1.3 0 1.8l-1.6 1.6 1.6 1.6c.5.5.5 1.3 0 1.8-.3.2-.6.4-.9.4zM-142.8-253.7c-.3 0-.6-.1-.9-.4-.5-.5-.5-1.3 0-1.8l1.6-1.6-1.6-1.6c-.5-.5-.5-1.3 0-1.8s1.3-.5 1.8 0l2.5 2.5c.5.5.5 1.3 0 1.8l-2.5 2.5c-.3.2-.6.4-.9.4zM-136.6-252.5c-2.7 0-5-2.2-5-5 0-2.7 2.2-5 5-5 2.7 0 5 2.2 5 5s-2.3 5-5 5zm0-7.5c-1.4 0-2.5 1.1-2.5 2.5s1.1 2.5 2.5 2.5 2.5-1.1 2.5-2.5c0-1.3-1.1-2.5-2.5-2.5z"/></g></svg>