<svg xmlns="http://www.w3.org/2000/svg" viewBox="-19 -19 86.1 86.1" enable-background="new -19 -19 86.1 86.1"><g fill="#231F20"><path d="M8.2 50.8c-1.5 0-2.9-.3-4.3-.9-.4-.2-.6-.5-.7-.9-.1-.4 0-.8.3-1.1l4.3-4.3v-3.4H4.4L.1 44.5c-.3.3-.7.4-1.1.3-.4-.1-.7-.3-.9-.7-1.7-4.1-.8-8.9 2.3-12 2.1-2.1 4.8-3.2 7.7-3.2 1.2 0 2.4.2 3.5.6l17.8-17.8C28.1 7.8 29.1 3.4 32 .5c2.1-2.1 4.8-3.2 7.7-3.2 1.5 0 2.9.3 4.3.9.4.2.6.5.7.9.1.4 0 .8-.3 1.1l-4.3 4.3v3.4h3.4l4.3-4.3c.3-.3.7-.4 1.1-.3.4.1.7.3.9.7 1.7 4.1.8 8.9-2.3 12-2.1 2.1-4.8 3.2-7.7 3.2-1.2 0-2.4-.2-3.5-.6L18.6 36.3c1.3 3.9.3 8.3-2.6 11.2-2.1 2.2-4.9 3.3-7.8 3.3zm-1.5-2.6c.5.1 1 .1 1.5.1 2.3 0 4.4-.9 6-2.5 2.5-2.5 3.2-6.1 1.8-9.4-.2-.5-.1-1 .3-1.3l18.9-18.9c.4-.4.9-.5 1.3-.3 1.1.4 2.2.7 3.3.7 2.3 0 4.4-.9 6-2.5 2-2 2.9-4.8 2.4-7.5L45 9.9c-.2.2-.5.4-.9.4H39c-.7 0-1.2-.5-1.2-1.2V3.9c0-.3.1-.6.4-.9l3.2-3.2c-.5-.1-1-.1-1.5-.1-2.3 0-4.4.9-6 2.5-2.5 2.5-3.2 6.1-1.8 9.4.2.5.1 1-.3 1.3l-19 18.8c-.4.4-.9.5-1.3.3-1.1-.4-2.2-.7-3.3-.7-2.3 0-4.4.9-6 2.5-2 2-2.9 4.8-2.4 7.5L3 38.1c.2-.2.5-.4.9-.4H9c.7 0 1.2.5 1.2 1.2v5.2c0 .3-.1.6-.4.9l-3.1 3.2zM45.9 50.8c-1.3 0-2.5-.5-3.4-1.4L31.3 38.2c-.5-.5-.5-1.2 0-1.7l5.2-5.2c.5-.5 1.2-.5 1.7 0l11.2 11.2c.9.9 1.4 2.1 1.4 3.4 0 1.3-.5 2.5-1.4 3.4-1 1-2.2 1.5-3.5 1.5zm-12-13.5l10.3 10.3c.9.9 2.5.9 3.4 0 .5-.5.7-1.1.7-1.7 0-.7-.3-1.3-.7-1.7L37.3 33.9l-3.4 3.4zM20.073 21.748L6.145 7.82l1.697-1.697L21.77 20.05zM29.6 41.1c-.3 0-.6-.1-.9-.4-.5-.5-.5-1.2 0-1.7L39 28.7c.5-.5 1.2-.5 1.7 0s.5 1.2 0 1.7L30.4 40.8c-.2.2-.5.3-.8.3zM5.3 10c-.3 0-.6-.1-.8-.4l-6.9-6.9c-.2-.2-.4-.5-.4-.9s.1-.6.4-.8L1-2.4c.5-.5 1.2-.5 1.7 0l6.9 6.9c.3.2.4.5.4.8s-.1.6-.4.9L6.2 9.6c-.3.3-.6.4-.9.4zM.2 1.9L5.3 7 7 5.3 1.9.1.2 1.9zM34.185 35.836l-8.909-8.908 1.697-1.697 8.909 8.91z"/></g><path fill="#231F20" d="M24 67C.3 67-19 47.7-19 24S.3-19 24-19 67 .3 67 24 47.7 67 24 67zm0-83.5C1.7-16.5-16.5 1.7-16.5 24S1.7 64.5 24 64.5 64.5 46.3 64.5 24 46.3-16.5 24-16.5z"/><path fill="#fff" d="M-303.8-34c-23.7 0-43-19.3-43-43s19.3-43 43-43 43 19.3 43 43-19.3 43-43 43zm0-83.5c-22.3 0-40.5 18.2-40.5 40.5s18.2 40.5 40.5 40.5 40.5-18.2 40.5-40.5-18.2-40.5-40.5-40.5z"/><path d="M-293.4-86.5c0 .3.3.6.6.6.4 0 .6-.4.6-.6v-.6h-.6c-.3 0-.6.3-.6.6zM-299.3-84.1c0 .3.3.6.6.6.4 0 .6-.4.6-.6v-.6h-.6c-.3 0-.6.2-.6.6zM-313.3-76.7l1-2 1.1 1.9c1.5 2.7 3.1 3.6 5.7 3.1-.8-4.6-4.2-8.1-8.2-8.1-3.9 0-7.1 3.3-8.1 7.7.7.3 1.5.4 2.3.4 2.5 0 5.4-1.4 6.2-3zM-306.7-71.1c-2.3 0-4.1-1-5.6-3-1.7 1.6-4.5 2.8-7.1 2.8-.9 0-1.8-.1-2.6-.4v.1c0 5.7 3.7 10.3 8.3 10.3 4.5 0 8.2-4.4 8.3-9.9-.4.1-.9.1-1.3.1zM-292.2-94.2l-4.4 2.1v1l4.4-2.1z" fill="none"/><path fill="#fff" d="M-298.7-54l-8.8-3.1v-4.1c2.7-2.3 4.5-6.1 4.5-10.3 0-7-4.8-12.7-10.8-12.7s-10.8 5.7-10.8 12.7c0 4.5 2 8.5 5 10.7v3.7l-8.8 3.1c-2.8 1-4.6 3.6-4.6 6.5v2.4h2.4v-2.4c0-1.9 1.2-3.6 3-4.3l10.4-3.7v-4.1c1 .4 2.2.6 3.3.6 1.3 0 2.6-.3 3.8-.8v4.3l10.4 3.7c1.8.6 3 2.4 3 4.3v12.3h2.4v-12.3c.2-2.8-1.6-5.5-4.4-6.5zm-15-27.8c4 0 7.4 3.5 8.2 8.1-2.6.4-4.1-.4-5.7-3.1l-1.1-1.9-1 2c-.8 1.6-3.7 3-6.1 3-.9 0-1.6-.1-2.3-.4.9-4.4 4.1-7.7 8-7.7zm0 20.5c-4.6 0-8.3-4.6-8.3-10.3v-.1c.8.2 1.7.4 2.6.4 2.6 0 5.4-1.2 7.1-2.8 1.5 2 3.3 3 5.6 3 .4 0 .9 0 1.4-.1-.2 5.5-3.9 9.9-8.4 9.9zM-292.2-88.5h-.6c-1.1 0-2.1.9-2.1 2.1s.9 2.1 2.1 2.1c1.1 0 2.1-1 2.1-2.1v-9.9l-7.4 3.3v6.9h-.6c-1.1 0-2.1.9-2.1 2.1s.9 2.1 2.1 2.1c1.1 0 2.1-1 2.1-2.1v-5.5l4.5-2.1v3.1zm0 2c0 .2-.2.6-.6.6-.3 0-.6-.3-.6-.6s.3-.6.6-.6h.6v.6zm-5.9 2.4c0 .2-.2.6-.6.6-.3 0-.6-.3-.6-.6s.3-.6.6-.6h.6v.6zm1.5-7v-1l4.5-2.1v1l-4.5 2.1z"/><path d="M-282.1-96.2c0 .3.2.5.5.5s.5-.3.5-.5v-.5h-.5c-.2-.1-.5.2-.5.5zM-287.3-94.2c0 .3.2.5.5.5s.5-.3.5-.5v-.5h-.5c-.2 0-.5.2-.5.5zM-284.9-100.3l3.9-1.8v-1l-3.9 1.9z" fill="none"/><path fill="#fff" d="M-286.2-102.1v6.1h-.5c-1 0-1.8.8-1.8 1.8s.8 1.8 1.8 1.8 1.8-.8 1.8-1.8v-4.7l3.9-1.9v2.8h-.5c-1 0-1.8.8-1.8 1.8s.8 1.8 1.8 1.8 1.8-.8 1.8-1.8v-8.7l-6.5 2.8zm0 7.9c0 .2-.2.5-.5.5s-.5-.2-.5-.5.2-.5.5-.5h.5v.5zm5.2-2c0 .2-.2.5-.5.5s-.5-.2-.5-.5.2-.5.5-.5h.5v.5zm0-5.9l-3.9 1.9v-.9l3.9-1.9v.9z"/><path d="M-283.3-82.8c0 .3.2.5.5.5s.5-.3.5-.5v-.5h-.5c-.2 0-.5.3-.5.5zM-288.4-80.7c0 .3.2.5.5.5s.5-.3.5-.5v-.5h-.5c-.3 0-.5.2-.5.5zM-286.1-86.8l3.9-1.9v-.9l-3.9 1.9z" fill="none"/><path fill="#fff" d="M-287.4-88.6v6.1h-.5c-1 0-1.8.8-1.8 1.8s.8 1.8 1.8 1.8 1.8-.8 1.8-1.8v-4.7l3.9-1.9v2.8h-.5c-1 0-1.8.8-1.8 1.8s.8 1.8 1.8 1.8 1.8-.8 1.8-1.8v-8.7l-6.5 2.8zm0 7.9c0 .2-.2.5-.5.5s-.5-.2-.5-.5.2-.5.5-.5h.5v.5zm5.2-2.1c0 .2-.2.5-.5.5s-.5-.2-.5-.5.2-.5.5-.5h.5v.5zm0-5.9l-3.9 1.9v-.9l3.9-1.9v.9zM-210-34c-23.7 0-43-19.3-43-43s19.3-43 43-43 43 19.3 43 43-19.3 43-43 43zm0-83.5c-22.3 0-40.5 18.2-40.5 40.5s18.2 40.5 40.5 40.5 40.5-18.2 40.5-40.5-18.2-40.5-40.5-40.5zM-210-44.6c-.2 0-.4-.1-.7-.2-.3-.2-7.7-4.5-15.2-11.4-10.2-9.4-15.3-18.7-15.3-27.7 0-12 8.2-17.5 15.7-17.5 5.8 0 12.4 3.3 15.4 10.7 3.1-7.3 9.6-10.7 15.4-10.7 7.6 0 15.7 5.5 15.7 17.5 0 8.9-5.2 18.2-15.3 27.7-7.5 6.9-14.9 11.2-15.2 11.4-.1.1-.3.2-.5.2zm-15.5-54.2c-6.3 0-13.1 4.7-13.1 14.9 0 18 24.2 33.8 28.6 36.4 4.3-2.7 28.6-18.4 28.6-36.4 0-10.3-6.8-14.9-13.1-14.9-5.8 0-12.4 4-14.2 12.9-.1.6-.7 1.1-1.3 1.1s-1.2-.4-1.3-1.1c-1.7-8.9-8.3-12.9-14.2-12.9zM-215.1-77.9v12.6h-1.6c-2.1 0-3.8 1.7-3.8 3.8s1.7 3.8 3.8 3.8c2 0 3.8-1.8 3.8-3.8v-11.1l8.5-3.4v7.4h-1.6c-2.1 0-3.8 1.7-3.8 3.8 0 2.1 1.7 3.8 3.8 3.8 2 0 3.8-1.8 3.8-3.8v-18.3l-12.9 5.2zm0 16.4c0 .7-.7 1.6-1.6 1.6-.9 0-1.6-.7-1.6-1.6 0-.9.7-1.6 1.6-1.6h1.6v1.6zm10.7-3.3c0 .7-.7 1.6-1.6 1.6-.9 0-1.6-.7-1.6-1.6 0-.9.7-1.6 1.6-1.6h1.6v1.6zm0-13.6l-8.5 3.4v-1.3l8.5-3.4v1.3zM-136.6-207c-23.7 0-43-19.3-43-43s19.3-43 43-43 43 19.3 43 43-19.3 43-43 43zm0-83.5c-22.3 0-40.5 18.2-40.5 40.5s18.2 40.5 40.5 40.5 40.5-18.2 40.5-40.5-18.2-40.5-40.5-40.5z"/><g fill="#fff"><path d="M-119.2-245h-.2c-.7-.1-1.1-.7-1-1.4l2.3-15.1c.6-4-.5-8-3.1-11s-6.4-4.8-10.4-4.8h-10c-4 0-7.8 1.7-10.4 4.8-2.6 3-3.7 7-3.1 11l2.3 15.1c.1.7-.4 1.3-1 1.4-.7.1-1.3-.4-1.4-1l-2.3-15.1c-.7-4.7.6-9.4 3.7-13 3.1-3.6 7.5-5.6 12.3-5.6h10c4.7 0 9.2 2.1 12.3 5.6 3.1 3.6 4.4 8.3 3.7 13l-2.3 15.1c-.3.5-.8 1-1.4 1zM-151.5-220.2c-.7 0-1.2-.6-1.2-1.2v-2.5c0-.7.6-1.2 1.2-1.2s1.2.6 1.2 1.2v2.5c0 .7-.6 1.2-1.2 1.2zM-121.7-220.2c-.7 0-1.2-.6-1.2-1.2v-2.5c0-.7.6-1.2 1.2-1.2s1.2.6 1.2 1.2v2.5c.1.7-.5 1.2-1.2 1.2zM-120.4-222.6h-32.3c-4.8 0-8.7-3.9-8.7-8.7v-5c0-.8-.5-1.4-1.1-1.7-2.3-1-3.8-3.2-3.8-5.7 0-3.4 2.8-6.2 6.2-6.2 5.5 0 10 4.5 10 10v1.8c2.2-.8 6.5-1.8 13.7-1.8 7.2 0 11.5 1 13.7 1.8v-1.8c0-5.5 4.5-10 10-10 3.4 0 6.2 2.8 6.2 6.2 0 2.5-1.5 4.8-3.8 5.7-.7.3-1.1 1-1.1 1.7v5c-.3 4.7-4.2 8.7-9 8.7zm-39.8-24.9c-2.1 0-3.7 1.7-3.7 3.7 0 1.5.9 2.9 2.3 3.4 1.6.7 2.7 2.3 2.7 4v5c0 3.4 2.8 6.2 6.2 6.2h32.3c3.4 0 6.2-2.8 6.2-6.2v-5c0-1.8 1.1-3.3 2.7-4 1.4-.6 2.3-1.9 2.3-3.4 0-2.1-1.7-3.7-3.7-3.7-4.1 0-7.5 3.3-7.5 7.5v6.1l-1.9-1.3s-3.7-2.3-14.2-2.3l-14.2 2.3-1.9 1.2v-6c-.2-4.2-3.5-7.5-7.6-7.5zM-130.4-253.7c-.3 0-.6-.1-.9-.4l-2.5-2.5c-.5-.5-.5-1.3 0-1.8l2.5-2.5c.5-.5 1.3-.5 1.8 0s.5 1.3 0 1.8l-1.6 1.6 1.6 1.6c.5.5.5 1.3 0 1.8-.3.2-.6.4-.9.4zM-142.8-253.7c-.3 0-.6-.1-.9-.4-.5-.5-.5-1.3 0-1.8l1.6-1.6-1.6-1.6c-.5-.5-.5-1.3 0-1.8s1.3-.5 1.8 0l2.5 2.5c.5.5.5 1.3 0 1.8l-2.5 2.5c-.3.2-.6.4-.9.4zM-136.6-252.5c-2.7 0-5-2.2-5-5 0-2.7 2.2-5 5-5 2.7 0 5 2.2 5 5s-2.3 5-5 5zm0-7.5c-1.4 0-2.5 1.1-2.5 2.5s1.1 2.5 2.5 2.5 2.5-1.1 2.5-2.5c0-1.3-1.1-2.5-2.5-2.5z"/></g></svg>