<svg xmlns="http://www.w3.org/2000/svg" viewBox="0 0 514.422 126.841" enable-background="new 0 0 514.422 126.841"><path fill="#fff" d="M89.26 65.633c-2.496-2.493-5.423-4.472-8.782-5.935-3.36-1.463-6.916-2.196-10.667-2.196-8.326 0-15.355 3.278-21.084 9.832-2.72-3.3-5.896-5.76-9.523-7.39s-7.503-2.442-11.625-2.442c-5.606 0-10.615 1.464-15.025 4.39-.413-1.317-1.175-2.38-2.288-3.184-1.113-.803-2.392-1.206-3.834-1.206-1.772 0-3.287.63-4.544 1.886C.63 60.644.002 62.154 0 63.922v56.354c.002 1.81.63 3.34 1.886 4.596 1.257 1.258 2.793 1.885 4.607 1.885 1.772 0 3.287-.627 4.545-1.885 1.257-1.258 1.886-2.793 1.886-4.607V85.08c0-2.02.38-3.915 1.144-5.688.762-1.77 1.813-3.328 3.153-4.668 1.34-1.34 2.897-2.39 4.67-3.154 1.77-.762 3.67-1.143 5.688-1.143 2.02 0 3.916.39 5.69 1.174 1.77.784 3.317 1.835 4.637 3.155 1.318 1.318 2.37 2.865 3.154 4.637.78 1.773 1.173 3.67 1.173 5.69v35.183c0 1.814.628 3.35 1.886 4.607 1.256 1.258 2.79 1.885 4.606 1.885 1.772 0 3.287-.627 4.545-1.885s1.887-2.793 1.887-4.607V85.08c0-2.02.38-3.915 1.144-5.688.763-1.77 1.814-3.318 3.154-4.637 1.34-1.32 2.896-2.37 4.67-3.154 1.77-.782 3.667-1.173 5.687-1.173 2.062 0 3.99.39 5.783 1.174 1.794.784 3.35 1.847 4.67 3.187 1.317 1.34 2.358 2.896 3.12 4.668.764 1.773 1.145 3.648 1.145 5.627v35.184c0 1.814.62 3.35 1.855 4.607 1.237 1.258 2.76 1.885 4.576 1.885 1.77 0 3.286-.627 4.544-1.885 1.257-1.258 1.886-2.793 1.886-4.607V85.08c0-3.75-.732-7.306-2.195-10.665-1.465-3.36-3.444-6.287-5.936-8.782zm73.35-8.13c-1.814 0-3.35.628-4.607 1.885-1.258 1.26-1.886 2.773-1.886 4.545V94.48c0 2.68-.505 5.186-1.515 7.514-1.01 2.328-2.402 4.38-4.174 6.152-1.773 1.773-3.834 3.164-6.183 4.172-2.35 1.012-4.844 1.516-7.482 1.516-2.68 0-5.194-.504-7.544-1.516-2.35-1.008-4.402-2.39-6.153-4.14-1.753-1.753-3.134-3.804-4.143-6.153-1.01-2.352-1.515-4.865-1.515-7.545V63.933c0-1.77-.63-3.286-1.887-4.545-1.258-1.257-2.773-1.886-4.545-1.886-1.815 0-3.35.63-4.607 1.886-1.257 1.26-1.885 2.773-1.885 4.545V94.48c0 4.412.856 8.574 2.566 12.49 1.71 3.918 4.03 7.338 6.958 10.264 2.926 2.93 6.348 5.248 10.264 6.957 3.916 1.712 8.08 2.567 12.49 2.567 3.71 0 7.153-.504 10.328-1.514 3.173-1.01 6.183-2.63 9.027-4.855.04 1.773.66 3.277 1.855 4.514 1.195 1.238 2.72 1.855 4.576 1.855 1.814 0 3.35-.627 4.607-1.885 1.257-1.258 1.886-2.773 1.886-4.545V63.933c0-1.77-.628-3.286-1.885-4.545-1.258-1.257-2.774-1.886-4.545-1.886zm64.647 37.617c-1.402-1.484-4.123-3.008-8.162-4.576l-28.94-9.52c-1.07-.413-1.606-1.196-1.606-2.35s.328-2.063.988-2.722c3.545-3.627 8.286-5.44 14.222-5.44 6.018 0 11.13 2.1 15.335 6.306.866.865 1.762 1.67 2.69 2.412.927.74 2.05 1.11 3.37 1.11 1.854 0 3.39-.606 4.606-1.823 1.217-1.215 1.826-2.75 1.826-4.605 0-1.525-.434-2.824-1.3-3.896-7.38-8.285-16.22-12.43-26.526-12.43-3.38 0-6.75.486-10.11 1.454-3.36.97-6.38 2.34-9.06 4.113-2.68 1.77-4.853 3.925-6.523 6.462-1.67 2.535-2.504 5.37-2.504 8.502 0 4.29 1.567 8.018 4.7 11.19h-.062c1.567 1.567 4.287 3.093 8.163 4.577l28.877 9.52c1.113.456 1.67 1.26 1.67 2.413 0 .99-.31 1.834-.928 2.535-3.587 3.71-8.327 5.564-14.222 5.564-6.06 0-11.193-2.102-15.397-6.307-.784-.743-1.65-1.515-2.597-2.32-.95-.804-2.102-1.204-3.463-1.204-1.855 0-3.39.607-4.607 1.824-1.216 1.215-1.824 2.75-1.824 4.605 0 1.484.453 2.824 1.36 4.02 7.298 8.203 16.14 12.305 26.528 12.305 3.38 0 6.74-.473 10.08-1.422 3.338-.947 6.347-2.318 9.027-4.11 2.68-1.794 4.854-3.948 6.523-6.464 1.67-2.514 2.505-5.357 2.505-8.533 0-4.286-1.568-8.015-4.7-11.19h.062zm17.794-57.445c-2.102 0-3.895.742-5.38 2.228-1.483 1.483-2.225 3.276-2.225 5.38 0 2.1.742 3.895 2.226 5.378 1.485 1.485 3.278 2.228 5.38 2.228 2.103 0 3.896-.742 5.38-2.227 1.484-1.482 2.226-3.276 2.226-5.377 0-2.104-.742-3.896-2.226-5.38-1.484-1.486-3.277-2.228-5.38-2.228zm0 19.91c-1.772 0-3.287.63-4.544 1.887-1.258 1.258-1.886 2.793-1.886 4.607v56.27c0 1.813.628 3.35 1.886 4.606 1.257 1.258 2.772 1.885 4.545 1.885 1.773 0 3.288-.626 4.546-1.884 1.256-1.258 1.906-2.793 1.947-4.607V64.08c-.04-1.815-.69-3.35-1.947-4.608-1.258-1.257-2.773-1.886-4.545-1.886zm32.49 19.264c1.978-1.96 4.284-3.505 6.925-4.64 2.637-1.133 5.46-1.7 8.47-1.7 2.722 0 5.235.454 7.544 1.36 2.308.908 4.515 2.248 6.614 4.02 1.238.988 2.64 1.484 4.207 1.484 1.856 0 3.392-.62 4.606-1.855 1.217-1.237 1.824-2.784 1.824-4.638 0-1.938-.74-3.566-2.225-4.887-6.35-5.605-13.873-8.408-22.57-8.408-9.564 0-17.727 3.38-24.486 10.14-6.763 6.763-10.142 14.925-10.142 24.487 0 9.564 3.38 17.727 10.14 24.486 6.76 6.762 14.923 10.14 24.487 10.14 8.656 0 16.18-2.802 22.57-8.407 1.36-1.36 2.04-2.947 2.04-4.762 0-1.854-.608-3.39-1.825-4.606-1.215-1.215-2.752-1.824-4.605-1.824-1.566.043-2.928.496-4.082 1.36-2.062 1.772-4.246 3.103-6.555 3.99s-4.822 1.327-7.543 1.327c-3.01 0-5.834-.564-8.47-1.7-2.642-1.132-4.948-2.68-6.927-4.638-1.98-1.958-3.535-4.257-4.67-6.896-1.133-2.637-1.7-5.46-1.7-8.47 0-3.01.567-5.833 1.7-8.472 1.136-2.638 2.693-4.936 4.67-6.893z"/><path fill="#C62D44" d="M409.475 35.93c1.78.04 3.31-.554 4.588-1.776 1.283-1.224 1.943-2.726 1.984-4.508.04-1.772-.55-3.33-1.775-4.67l-8.4-8.796-13.565-14.193c1.258 1.214 1.682 2.79 1.682 4.645v15.82l2.536 2.654 8.402 8.796c1.254 1.31 2.77 1.987 4.547 2.027zM387.713.002l-.123.003.537.025-.414-.027zm.54.036c.413.04.804.118 1.175.225-.38-.108-.77-.186-1.176-.226zm1.284.266c1.072.33 1.975.912 2.77 1.682-.82-.82-1.746-1.372-2.77-1.682zm-6.412 1.47l-.205.22c.88-.87 1.92-1.527 3.13-1.82-1.087.25-2.062.78-2.925 1.6z"/><path fill="#E93D50" d="M392.307 1.987c-.795-.77-1.697-1.352-2.77-1.682l-.11-.04c-.37-.107-.76-.185-1.175-.227l-.125-.008-.537-.025-.11-.005-.243.014-.268.015-.384.044-.31.052-.228.05c-1.21.294-2.248.95-3.13 1.822l-.03.03-.283.31c-1.025 1.163-1.54 2.594-1.54 4.295V65.11c-6.27-5.07-13.503-7.602-21.708-7.602-9.562 0-17.725 3.38-24.484 10.14s-10.14 14.923-10.14 24.485 3.38 17.727 10.14 24.486 14.922 10.138 24.484 10.138c9.482 0 17.645-3.38 24.488-10.14 6.762-6.677 10.143-14.84 10.143-24.485v-85.5c0-1.856-.424-3.432-1.68-4.646zm67.314 65.74c-6.843-6.76-15.005-10.14-24.485-10.14-9.564 0-17.727 3.38-24.486 10.14-6.763 6.763-10.144 14.925-10.144 24.487 0 9.564 3.38 17.727 10.143 24.486 6.76 6.762 14.92 10.14 24.485 10.14 9.48 0 17.643-3.378 24.486-10.14 6.76-6.678 10.142-14.84 10.142-24.486-.04-4.78-.896-9.213-2.566-13.295-1.67-4.08-4.196-7.812-7.575-11.193zm52.946 47.993c-1.236-1.258-2.742-1.887-4.514-1.887-8.244 0-12.367-4.1-12.367-12.305v-31.1h7.73c1.77 0 3.277-.63 4.514-1.89 1.235-1.257 1.854-2.79 1.854-4.605 0-1.77-.62-3.287-1.855-4.545-1.237-1.257-2.743-1.886-4.515-1.886h-7.73v-23.25c0-1.77-.63-3.287-1.885-4.545-1.258-1.257-2.773-1.886-4.547-1.886-1.812 0-3.348.63-4.605 1.887-1.258 1.258-1.887 2.774-1.887 4.545v23.25h-2.905l-.062.003h-4.787c-1.77 0-3.277.63-4.514 1.886-1.238 1.26-1.855 2.774-1.855 4.546 0 1.814.617 3.35 1.855 4.606 1.236 1.26 2.742 1.887 4.514 1.887h7.73v-.003h.026v31.102c0 16.82 8.432 25.228 25.29 25.228 1.772 0 3.278-.627 4.515-1.885s1.855-2.793 1.855-4.607c0-1.773-.62-3.288-1.856-4.546z"/></svg>