<svg xmlns="http://www.w3.org/2000/svg" width="22" height="22"><path d="M15.413 14.332h-.83l.004-.482c0-.214.176-.39.39-.39h.054c.216 0 .393.175.393.39l-.01.482zM12.3 13.3c-.212 0-.384.14-.384.314v2.345c0 .172.172.313.383.313.21 0 .383-.14.383-.314v-2.346c0-.173-.172-.315-.384-.315zm5.056-1.313v4.46c0 1.07-.928 1.947-2.062 1.947h-8.48c-1.136 0-2.064-.876-2.064-1.946v-4.46c0-1.07.928-1.947 2.063-1.947h8.48c1.135 0 2.063.877 2.063 1.947zm-9.978 4.946v-4.7h1.05v-.696l-2.803-.004v.685l.875.003v4.714h.877zm3.15-4h-.876v2.51c0 .363.022.545 0 .61-.072.194-.393.4-.518.02-.02-.067-.002-.267-.003-.612l-.003-2.526h-.872l.003 2.487c0 .382-.01.667.003.796.022.228.015.494.226.646.394.284 1.15-.042 1.34-.448l-.003.518h.704v-3.997zm2.805 2.874l-.002-2.09c0-.795-.595-1.272-1.404-.628l.004-1.554h-.876l-.004 5.36.72-.01.065-.334c.92.844 1.5.266 1.497-.747zm2.743-.277l-.657.004-.003.09v.366c0 .196-.162.356-.36.356h-.128c-.198 0-.36-.16-.36-.356v-.965h1.505v-.566c0-.415-.01-.83-.045-1.065-.108-.75-1.158-.867-1.69-.484-.166.12-.293.28-.367.496-.075.215-.112.51-.112.883v1.244c0 2.07 2.516 1.778 2.216-.003zm-3.37-6.76c.044.11.114.198.21.265.094.066.215.1.36.1.125 0 .237-.034.335-.105.098-.07.18-.175.247-.314l-.016.344h.978V4.905h-.77V8.14c0 .174-.143.318-.32.318-.175 0-.32-.143-.32-.32V4.906h-.803v2.803c0 .357.006.595.017.716.01.12.04.235.084.346zM9.743 6.42c0-.4.033-.71.1-.935.066-.224.185-.404.358-.54.173-.135.394-.204.662-.204.226 0 .42.044.582.13.163.088.288.202.375.342.09.14.15.285.182.433.033.15.05.376.05.68v1.05c0 .386-.016.67-.046.85-.03.18-.094.348-.192.505-.098.155-.224.27-.376.346-.154.074-.33.11-.53.11-.223 0-.41-.03-.565-.095-.155-.064-.275-.16-.36-.288-.086-.128-.147-.284-.184-.466-.038-.18-.055-.454-.055-.818v-1.1zm.765 1.65c0 .236.174.428.387.428.213 0 .388-.192.388-.427V5.86c0-.234-.174-.426-.388-.426-.213 0-.388.192-.388.427v2.213zM7.804 9.19h.922V6.003l1.09-2.73H8.81L8.23 5.3 7.643 3.27h-.998l1.16 2.737V9.19z" fill="#fff"/><path d="M22 11c0-6.075-4.925-11-11-11S0 4.925 0 11s4.925 11 11 11 11-4.925 11-11zM1 11C1 5.477 5.477 1 11 1s10 4.477 10 10-4.477 10-10 10S1 16.523 1 11z" fill="#fff" fill-rule="evenodd"/></svg>